PathFileType	4	(X/Y/Z)	TVC_26_BWA4_walk_RCNL2025.trc
DataRate	CameraRate	NumFrames	NumMarkers	Units	OrigDataRate	OrigDataStartFrame	OrigNumFrames
100	100	10	27	mm	100	1	415
Frame#	Time	R_Shoulder			L_Shoulder			C7			J_Notch			R_Elbow			L_Elbow			R_Wrist			L_Wrist			R_Asis			L_Asis			R_Psis			L_Psis			Sacral			Thoracic			Sternum			R_Thigh_Lateral			R_Knee_Lateral			R_Shank_Lateral			R_Ankle_Lateral			R_Heel			R_Toe			L_Thigh_Lateral			L_Knee_Lateral			L_Shank_Lateral			L_Ankle_Lateral			L_Heel			L_Toe		
		X1	Y1	Z1	X2	Y2	Z2	X3	Y3	Z3	X4	Y4	Z4	X5	Y5	Z5	X6	Y6	Z6	X7	Y7	Z7	X8	Y8	Z8	X9	Y9	Z9	X10	Y10	Z10	X11	Y11	Z11	X12	Y12	Z12	X13	Y13	Z13	X14	Y14	Z14	X15	Y15	Z15	X16	Y16	Z16	X17	Y17	Z17	X18	Y18	Z18	X19	Y19	Z19	X20	Y20	Z20	X21	Y21	Z21	X22	Y22	Z22	X23	Y23	Z23	X24	Y24	Z24	X25	Y25	Z25	X26	Y26	Z26	X27	Y27	Z27
1	0.00000000	-723.671509	1360.368408	-29.145285	-767.234253	1372.383301	-345.207001	-818.546509	1405.401489	-169.909882	-671.811768	1306.049438	-190.232697	-773.369934	1025.619385	91.240646	-818.121155	1047.621704	-455.650116	-742.590607	817.093170	145.476685	-663.385559	883.191925	-442.959442	-666.640015	954.123901	-28.937454	-681.472656	959.306274	-324.446594	-881.106384	954.490784	-90.680283	-884.782471	952.098938	-237.359573	-882.944427	953.294861	-164.019928	-887.069885	1127.965210	-175.816528	-629.231934	1067.429932	-203.027847	-603.913635	586.230835	13.245307	-534.833008	481.410065	-43.904999	-599.405151	302.744781	3.391618	-672.457153	110.507210	-52.291256	-725.911255	103.626839	-97.998917	-546.781311	57.211807	-78.205704	-659.003052	590.890503	-352.632080	-673.760986	469.079559	-278.193939	-708.037109	251.477203	-306.842072	-754.025391	64.913612	-222.796082	-800.790771	51.875870	-168.948318	-616.055725	40.553066	-212.257523
2	0.01000000	-719.599609	1360.322632	-29.906830	-763.178040	1372.189941	-346.002533	-814.421082	1405.414062	-170.679428	-667.773560	1305.898438	-190.949310	-771.245850	1025.736328	90.194786	-814.596924	1047.675049	-456.477539	-742.018250	817.180878	144.509468	-660.041412	883.004547	-444.109329	-662.039368	954.053040	-29.978838	-676.466492	958.804199	-324.594513	-876.918396	954.478516	-91.141571	-880.691406	952.083923	-237.897263	-878.804901	953.281219	-164.519417	-882.975647	1127.945923	-176.348221	-624.931580	1067.424194	-203.727570	-599.851746	585.635010	11.826412	-529.120300	482.355743	-46.376762	-586.493896	302.434296	1.489345	-650.487854	107.948456	-54.168114	-703.782043	98.325287	-99.310585	-523.726379	59.933826	-82.105942	-655.598694	590.372131	-352.987122	-671.644104	468.665375	-278.403564	-706.572327	251.168488	-306.669556	-754.047607	64.831070	-222.778793	-800.639038	51.739281	-169.024094	-616.061523	40.501282	-212.268982
3	0.02000000	-715.520325	1360.253174	-30.637859	-759.123474	1371.975342	-346.770203	-810.292969	1405.391968	-171.419250	-663.721741	1305.735840	-191.644760	-768.989014	1025.816528	89.179588	-811.069885	1047.680542	-457.241089	-741.240753	817.230652	143.557888	-656.708618	882.750153	-445.169449	-657.429688	953.954529	-30.968288	-671.536804	958.317322	-324.765869	-872.684021	954.422180	-91.587959	-876.564331	952.029175	-238.407928	-874.624176	953.225677	-164.997944	-878.852905	1127.887939	-176.860382	-620.615845	1067.399414	-204.397537	-595.858276	585.040833	10.441860	-523.499573	483.202515	-48.763920	-573.995300	302.193451	-0.411244	-629.557983	105.693733	-56.110016	-682.648865	93.545624	-100.750725	-501.774597	62.645374	-85.908508	-652.479797	589.690979	-353.297821	-669.517517	468.245300	-278.630066	-705.227661	250.844772	-306.588776	-754.034241	64.743843	-222.757965	-800.502014	51.671410	-169.056625	-616.056946	40.449593	-212.279053
4	0.03000000	-711.433594	1360.160156	-31.338398	-755.070618	1371.739380	-347.510010	-806.162231	1405.335327	-172.129364	-659.656372	1305.561401	-192.319046	-766.599426	1025.860229	88.195084	-807.539978	1047.638428	-457.940826	-740.258026	817.242523	142.621979	-653.386993	882.428772	-446.139938	-652.810974	953.828491	-31.905737	-666.683716	957.846069	-324.961182	-868.403320	954.321838	-92.019547	-872.401123	951.934631	-238.891678	-870.402222	953.128235	-165.455612	-874.701599	1127.791138	-177.352997	-616.284851	1067.355713	-205.037796	-591.923401	584.450928	9.096675	-517.969666	483.950806	-51.066376	-561.912415	302.022858	-2.309553	-609.668884	103.741524	-58.116524	-662.514343	89.286606	-102.318619	-480.927948	65.342728	-89.612007	-649.637329	588.854919	-353.566132	-667.381775	467.819397	-278.872833	-704.004089	250.506912	-306.598541	-753.985413	64.652313	-222.733719	-800.379089	51.671356	-169.047028	-616.042114	40.397976	-212.287796
5	0.04000000	-707.339417	1360.043701	-32.008511	-751.019287	1371.482300	-348.221954	-802.028809	1405.244141	-172.809814	-655.577271	1305.375366	-192.972137	-764.076904	1025.867310	87.241302	-804.006836	1047.548584	-458.577026	-739.069916	817.216522	141.701881	-650.075958	882.040710	-447.021194	-648.183350	953.675476	-32.790974	-661.907288	957.391663	-325.181854	-864.076233	954.177551	-92.436562	-868.201355	951.800293	-239.348846	-866.138794	952.988922	-165.892704	-870.521545	1127.655640	-177.826111	-611.938782	1067.293213	-205.648438	-588.014038	583.876465	7.802864	-512.526672	484.602173	-53.283955	-550.253845	301.923187	-4.203858	-590.824768	102.087654	-60.186356	-643.385437	85.544708	-104.012215	-461.191345	68.015953	-93.212723	-647.042786	587.888428	-353.797577	-665.238037	467.387817	-279.130249	-702.902466	250.157578	-306.694550	-753.901245	64.557510	-222.706390	-800.268433	51.736126	-168.998184	-616.017578	40.346359	-212.295303
6	0.05000000	-703.237488	1359.903809	-32.648315	-746.969421	1371.204102	-348.906036	-797.892517	1405.118286	-173.460709	-651.484375	1305.177734	-193.603989	-761.421265	1025.837891	86.318344	-800.469666	1047.411011	-459.150238	-737.676147	817.152679	140.797855	-646.774200	881.586578	-447.813995	-643.546814	953.496521	-33.623493	-657.207336	956.956055	-325.430054	-859.702637	953.989441	-92.839455	-863.964111	951.626160	-239.780045	-861.833374	952.807800	-166.309750	-866.312561	1127.481323	-178.279739	-607.578003	1067.212036	-206.229736	-584.055969	583.342468	6.577882	-507.163055	485.159790	-55.416225	-539.036987	301.893860	-6.091080	-573.033020	100.723938	-62.316891	-625.275024	82.312675	-105.827393	-442.573669	70.646286	-96.703651	-644.638123	586.838928	-354.003418	-663.088135	466.950500	-279.399353	-701.921082	249.801712	-306.867493	-753.782776	64.461426	-222.676468	-800.167358	51.859726	-168.915482	-615.984009	40.294624	-212.301727
7	0.06000000	-699.127563	1359.741089	-33.258022	-742.920654	1370.905151	-349.562256	-793.753235	1404.957886	-174.082199	-647.377319	1304.968750	-194.214554	-758.632263	1025.771973	85.426430	-796.927124	1047.226074	-459.661591	-736.076172	817.051117	139.910366	-643.479492	881.067657	-448.519699	-638.901672	953.293213	-34.402351	-652.582825	956.541748	-325.708862	-855.282349	953.757690	-93.229004	-859.687744	951.412292	-240.186386	-857.485046	952.584991	-166.707695	-862.073975	1127.267944	-178.713928	-603.202820	1067.112793	-206.782364	-579.932251	582.880615	5.436566	-501.865875	485.628662	-57.462273	-528.288940	301.931122	-7.966667	-556.305237	99.637070	-64.503784	-608.202393	79.578201	-107.757515	-425.088165	73.204872	-100.074501	-642.339905	585.771790	-354.198975	-660.934204	466.507294	-279.675598	-701.052307	249.446411	-307.102478	-753.632385	64.367294	-222.644455	-800.072266	52.032951	-168.806900	-615.941833	40.242516	-212.307297
8	0.07000000	-695.009155	1359.555786	-33.837917	-738.872375	1370.585571	-350.190704	-789.610413	1404.762939	-174.674500	-643.255676	1304.748779	-194.803818	-755.709534	1025.669922	84.565857	-793.376953	1046.993896	-460.112885	-734.269379	816.912018	139.040169	-640.188446	880.486084	-449.140381	-634.247864	953.067810	-35.126152	-648.030945	956.152161	-326.022064	-850.815186	953.482666	-93.606300	-855.369995	951.158997	-240.569427	-853.092590	952.320831	-167.087864	-857.804932	1127.015747	-179.128754	-598.813354	1066.996460	-207.307449	-575.504883	582.519043	4.382846	-496.616577	486.015747	-59.420475	-518.045837	302.026947	-9.824369	-540.656250	98.808189	-66.740784	-592.192139	77.322525	-109.793724	-408.751556	75.653564	-103.312889	-640.059021	584.752136	-354.399109	-658.778687	466.058014	-279.953033	-700.280579	249.101013	-307.379333	-753.454468	64.279373	-222.610626	-799.979187	52.244038	-168.682129	-615.891418	40.189564	-212.312363
9	0.08000000	-690.881592	1359.348633	-34.388378	-734.823730	1370.245728	-350.791443	-785.463562	1404.533447	-175.237900	-639.118591	1304.517944	-195.371765	-752.652588	1025.531860	83.737091	-789.815979	1046.715454	-460.506989	-732.254913	816.735748	138.188354	-636.896240	879.844879	-449.679047	-629.585083	952.823303	-35.793163	-643.546570	955.790405	-326.373566	-846.300720	953.164978	-93.972748	-851.007812	950.866577	-240.931213	-848.654266	952.015778	-167.451981	-853.504333	1126.724121	-179.524292	-594.409119	1066.864136	-207.806732	-570.652588	582.278809	3.407493	-491.390564	486.330048	-61.288296	-508.347992	302.167847	-11.656187	-526.103394	98.212936	-69.019753	-577.271790	75.519287	-111.925644	-393.582275	77.947670	-106.406281	-637.718689	583.829285	-354.614197	-656.623840	465.602661	-280.224518	-699.582092	248.776886	-307.673279	-753.255432	64.202286	-222.574707	-799.884216	52.479763	-168.550995	-615.832947	40.135075	-212.317200
10	0.09000000	-686.744019	1359.120239	-34.909882	-730.773499	1369.886108	-351.364624	-781.311707	1404.269165	-175.772766	-634.965027	1304.276489	-195.918472	-749.460999	1025.358032	82.940720	-786.239807	1046.391724	-460.847778	-730.031769	816.522766	137.356396	-633.596680	879.148041	-450.139420	-624.912659	952.563354	-36.401592	-639.121704	955.459412	-326.766907	-841.738281	952.805359	-94.329964	-846.597595	950.535645	-241.274246	-844.167938	951.670502	-167.802105	-849.170532	1126.393188	-179.900681	-589.989441	1066.717163	-208.282379	-565.306213	582.173645	2.492599	-486.158112	486.582611	-63.062325	-499.233185	302.335205	-13.452996	-512.663940	97.821632	-71.331177	-563.468811	74.133926	-114.142097	-379.597900	80.039749	-109.343910	-635.263489	583.030212	-354.848236	-654.472229	465.141876	-280.482391	-698.927063	248.485626	-307.956451	-753.043274	64.140236	-222.535782	-799.783691	52.726616	-168.421829	-615.766663	40.078346	-212.322037
